<svg id="visual" viewBox="0 0 1366 768" width="1366" height="768" xmlns="http://www.w3.org/2000/svg" xmlns:xlink="http://www.w3.org/1999/xlink" version="1.1"><rect x="0" y="0" width="1366" height="768" fill="#1A202C"></rect><defs><linearGradient id="grad1_0" x1="43.8%" y1="100%" x2="100%" y2="0%"><stop offset="14.427083333333334%" stop-color="#1a202c" stop-opacity="1"></stop><stop offset="85.57291666666667%" stop-color="#1a202c" stop-opacity="1"></stop></linearGradient></defs><defs><linearGradient id="grad2_0" x1="0%" y1="100%" x2="56.2%" y2="0%"><stop offset="14.427083333333334%" stop-color="#1a202c" stop-opacity="1"></stop><stop offset="85.57291666666667%" stop-color="#1a202c" stop-opacity="1"></stop></linearGradient></defs><g transform="translate(1366, 768)"><path d="M-345.6 0C-338.4 -63.6 -331.1 -127.2 -299.3 -172.8C-267.5 -218.4 -211 -246.1 -157 -271.9C-103 -297.7 -51.5 -321.7 0 -345.6L0 0Z" fill="#FBAE3C"></path></g><g transform="translate(0, 0)"><path d="M345.6 0C339.4 65.4 333.3 130.9 299.3 172.8C265.3 214.7 203.5 233.2 149 258.1C94.5 283 47.2 314.3 0 345.6L0 0Z" fill="#FBAE3C"></path></g></svg>