<svg id="visual" viewBox="0 0 675 900" width="675" height="900" xmlns="http://www.w3.org/2000/svg" xmlns:xlink="http://www.w3.org/1999/xlink" version="1.1"><rect x="0" y="0" width="675" height="900" fill="#1A202C"></rect><defs><linearGradient id="grad1_0" x1="0%" y1="100%" x2="100%" y2="0%"><stop offset="30%" stop-color="#1a202c" stop-opacity="1"></stop><stop offset="70%" stop-color="#1a202c" stop-opacity="1"></stop></linearGradient></defs><defs><linearGradient id="grad2_0" x1="0%" y1="100%" x2="100%" y2="0%"><stop offset="30%" stop-color="#1a202c" stop-opacity="1"></stop><stop offset="70%" stop-color="#1a202c" stop-opacity="1"></stop></linearGradient></defs><g transform="translate(675, 900)"><path d="M-253.1 0C-248.6 -48 -244.1 -95.9 -219.2 -126.6C-194.3 -157.2 -148.9 -170.6 -109 -188.8C-69.1 -207 -34.5 -230.1 0 -253.1L0 0Z" fill="#FBAE3C"></path></g><g transform="translate(0, 0)"><path d="M253.1 0C248 46.9 242.9 93.8 219.2 126.6C195.5 159.3 153.1 177.9 113.5 196.6C73.9 215.3 36.9 234.2 0 253.1L0 0Z" fill="#FBAE3C"></path></g></svg>