<svg id="visual" viewBox="0 0 960 540" width="960" height="540" xmlns="http://www.w3.org/2000/svg" xmlns:xlink="http://www.w3.org/1999/xlink" version="1.1"><rect x="0" y="0" width="960" height="540" fill="#1A202C"></rect><defs><linearGradient id="grad1_0" x1="43.8%" y1="100%" x2="100%" y2="0%"><stop offset="14.444444444444446%" stop-color="#1a202c" stop-opacity="1"></stop><stop offset="85.55555555555554%" stop-color="#1a202c" stop-opacity="1"></stop></linearGradient></defs><defs><linearGradient id="grad2_0" x1="0%" y1="100%" x2="56.3%" y2="0%"><stop offset="14.444444444444446%" stop-color="#1a202c" stop-opacity="1"></stop><stop offset="85.55555555555554%" stop-color="#1a202c" stop-opacity="1"></stop></linearGradient></defs><g transform="translate(960, 540)"><path d="M-243 0C-236.8 -42.7 -230.5 -85.4 -210.4 -121.5C-190.3 -157.6 -156.4 -187 -119 -206.1C-81.6 -225.3 -40.8 -234.1 0 -243L0 0Z" fill="#FBAE3C"></path></g><g transform="translate(0, 0)"><path d="M243 0C239.6 47.6 236.1 95.1 210.4 121.5C184.7 147.9 136.8 153 98 169.7C59.2 186.5 29.6 214.7 0 243L0 0Z" fill="#FBAE3C"></path></g></svg>