<svg id="visual" viewBox="0 0 1336 768" width="1336" height="768" xmlns="http://www.w3.org/2000/svg" xmlns:xlink="http://www.w3.org/1999/xlink" version="1.1"><path d="M0 145L27.8 158C55.7 171 111.3 197 167 206.2C222.7 215.3 278.3 207.7 334 196C389.7 184.3 445.3 168.7 501 176.7C556.7 184.7 612.3 216.3 668 221.3C723.7 226.3 779.3 204.7 835 200.3C890.7 196 946.3 209 1002 208.8C1057.7 208.7 1113.3 195.3 1169 194.2C1224.7 193 1280.3 204 1308.2 209.5L1336 215L1336 0L1308.2 0C1280.3 0 1224.7 0 1169 0C1113.3 0 1057.7 0 1002 0C946.3 0 890.7 0 835 0C779.3 0 723.7 0 668 0C612.3 0 556.7 0 501 0C445.3 0 389.7 0 334 0C278.3 0 222.7 0 167 0C111.3 0 55.7 0 27.8 0L0 0Z" fill="#f98b61"></path><path d="M0 230L27.8 214.2C55.7 198.3 111.3 166.7 167 150C222.7 133.3 278.3 131.7 334 140.5C389.7 149.3 445.3 168.7 501 179.5C556.7 190.3 612.3 192.7 668 194.2C723.7 195.7 779.3 196.3 835 197.2C890.7 198 946.3 199 1002 189C1057.7 179 1113.3 158 1169 153.8C1224.7 149.7 1280.3 162.3 1308.2 168.7L1336 175L1336 0L1308.2 0C1280.3 0 1224.7 0 1169 0C1113.3 0 1057.7 0 1002 0C946.3 0 890.7 0 835 0C779.3 0 723.7 0 668 0C612.3 0 556.7 0 501 0C445.3 0 389.7 0 334 0C278.3 0 222.7 0 167 0C111.3 0 55.7 0 27.8 0L0 0Z" fill="#f67a55"></path><path d="M0 156L27.8 158C55.7 160 111.3 164 167 160C222.7 156 278.3 144 334 130.3C389.7 116.7 445.3 101.3 501 100.2C556.7 99 612.3 112 668 122.2C723.7 132.3 779.3 139.7 835 147.3C890.7 155 946.3 163 1002 169.2C1057.7 175.3 1113.3 179.7 1169 173.2C1224.7 166.7 1280.3 149.3 1308.2 140.7L1336 132L1336 0L1308.2 0C1280.3 0 1224.7 0 1169 0C1113.3 0 1057.7 0 1002 0C946.3 0 890.7 0 835 0C779.3 0 723.7 0 668 0C612.3 0 556.7 0 501 0C445.3 0 389.7 0 334 0C278.3 0 222.7 0 167 0C111.3 0 55.7 0 27.8 0L0 0Z" fill="#f2684b"></path><path d="M0 118L27.8 115C55.7 112 111.3 106 167 99.5C222.7 93 278.3 86 334 91C389.7 96 445.3 113 501 122.2C556.7 131.3 612.3 132.7 668 127.2C723.7 121.7 779.3 109.3 835 102.5C890.7 95.7 946.3 94.3 1002 97.3C1057.7 100.3 1113.3 107.7 1169 103.3C1224.7 99 1280.3 83 1308.2 75L1336 67L1336 0L1308.2 0C1280.3 0 1224.7 0 1169 0C1113.3 0 1057.7 0 1002 0C946.3 0 890.7 0 835 0C779.3 0 723.7 0 668 0C612.3 0 556.7 0 501 0C445.3 0 389.7 0 334 0C278.3 0 222.7 0 167 0C111.3 0 55.7 0 27.8 0L0 0Z" fill="#ee5442"></path><path d="M0 64L27.8 60.8C55.7 57.7 111.3 51.3 167 54C222.7 56.7 278.3 68.3 334 74.5C389.7 80.7 445.3 81.3 501 72.3C556.7 63.3 612.3 44.7 668 42.3C723.7 40 779.3 54 835 60.2C890.7 66.3 946.3 64.7 1002 59.8C1057.7 55 1113.3 47 1169 46.8C1224.7 46.7 1280.3 54.3 1308.2 58.2L1336 62L1336 0L1308.2 0C1280.3 0 1224.7 0 1169 0C1113.3 0 1057.7 0 1002 0C946.3 0 890.7 0 835 0C779.3 0 723.7 0 668 0C612.3 0 556.7 0 501 0C445.3 0 389.7 0 334 0C278.3 0 222.7 0 167 0C111.3 0 55.7 0 27.8 0L0 0Z" fill="#ea3b3b"></path></svg>