<svg id="visual" viewBox="0 0 1364 766" width="1364" height="766" xmlns="http://www.w3.org/2000/svg" xmlns:xlink="http://www.w3.org/1999/xlink" version="1.1"><rect x="0" y="0" width="1364" height="766" fill="#1A202C"></rect><defs><linearGradient id="grad1_0" x1="43.8%" y1="100%" x2="100%" y2="0%"><stop offset="14.386422976501306%" stop-color="#1a202c" stop-opacity="1"></stop><stop offset="85.61357702349869%" stop-color="#1a202c" stop-opacity="1"></stop></linearGradient></defs><defs><linearGradient id="grad2_0" x1="0%" y1="100%" x2="56.2%" y2="0%"><stop offset="14.386422976501306%" stop-color="#1a202c" stop-opacity="1"></stop><stop offset="85.61357702349869%" stop-color="#1a202c" stop-opacity="1"></stop></linearGradient></defs><g transform="translate(1364, 766)"><path d="M-344.7 0C-332.3 -58 -319.9 -116 -292.7 -169C-265.5 -222 -223.6 -270.1 -172.4 -298.5C-121.1 -327 -60.6 -335.8 0 -344.7L0 0Z" fill="#FBAE3C"></path></g><g transform="translate(0, 0)"><path d="M344.7 0C337.2 63 329.8 126 298.5 172.3C267.3 218.7 212.2 248.6 158.5 274.5C104.8 300.5 52.4 322.6 0 344.7L0 0Z" fill="#FBAE3C"></path></g></svg>